<svg width="18" height="18" viewBox="0 0 18 18" fill="none" xmlns="http://www.w3.org/2000/svg">
<path opacity="0.4" d="M16 9C16 12.866 12.866 16 9 16C5.13401 16 2 12.866 2 9C2 5.13401 5.13401 2 9 2C12.866 2 16 5.13401 16 9Z" fill="#037856" stroke="#037856"/>
<path d="M9.35355 7.73895L9 7.3854L8.64644 7.73895L6.39644 9.98895C6.387 9.99839 6.3723 10.0056 6.3525 10.0056C6.33269 10.0056 6.31799 9.99839 6.30855 9.98895L5.955 10.3425L6.30855 9.98895C6.2991 9.97951 6.29187 9.96481 6.29187 9.945C6.29187 9.92519 6.2991 9.9105 6.30855 9.90106L8.95605 7.25356C8.96549 7.24411 8.98019 7.23688 9 7.23688C9.0198 7.23688 9.0345 7.24411 9.04394 7.25356L11.6914 9.90106C11.7009 9.9105 11.7081 9.92519 11.7081 9.945C11.7081 9.96481 11.7009 9.97951 11.6914 9.98895C11.683 9.99738 11.676 10.0012 11.6707 10.0034C11.6649 10.0057 11.6573 10.0075 11.6475 10.0075C11.6377 10.0075 11.6301 10.0057 11.6243 10.0034C11.6189 10.0012 11.612 9.99738 11.6035 9.98895L9.35355 7.73895Z" fill="#037856" stroke="#037856"/>
</svg>
