<svg width="19" height="18" viewBox="0 0 19 18" fill="none" xmlns="http://www.w3.org/2000/svg">
<path opacity="0.4" d="M16.625 9C16.625 12.935 13.435 16.125 9.5 16.125C5.56497 16.125 2.375 12.935 2.375 9C2.375 5.06497 5.56497 1.875 9.5 1.875C13.435 1.875 16.625 5.06497 16.625 9Z" fill="#054E3B" stroke="#054E3B" stroke-width="0.75"/>
<path d="M10.445 12.2101C10.3025 12.2101 10.16 12.1576 10.0475 12.0451L7.4 9.39762C7.1825 9.18012 7.1825 8.82012 7.4 8.60262L10.0475 5.95512C10.265 5.73762 10.625 5.73762 10.8425 5.95512C11.06 6.17262 11.06 6.53262 10.8425 6.75012L8.5925 9.00012L10.8425 11.2501C11.06 11.4676 11.06 11.8276 10.8425 12.0451C10.7375 12.1576 10.595 12.2101 10.445 12.2101Z" fill="white"/>
</svg>
