<svg width="18" height="18" viewBox="0 0 18 18" fill="none" xmlns="http://www.w3.org/2000/svg">
<path opacity="0.4" d="M16 9C16 12.866 12.866 16 9 16C5.13401 16 2 12.866 2 9C2 5.13401 5.13401 2 9 2C12.866 2 16 5.13401 16 9Z" fill="#037856" stroke="#037856"/>
<path d="M8.64644 10.2536L9 10.6071L9.35355 10.2536L11.6035 8.00356C11.613 7.99411 11.6277 7.98688 11.6475 7.98688C11.6673 7.98688 11.682 7.99411 11.6914 8.00356C11.7009 8.013 11.7081 8.02769 11.7081 8.0475C11.7081 8.06731 11.7009 8.08201 11.6914 8.09145L9.04394 10.7389C9.03551 10.7474 9.02855 10.7512 9.02319 10.7534C9.01737 10.7557 9.00976 10.7575 9 10.7575C8.99023 10.7575 8.98262 10.7557 8.9768 10.7534C8.97144 10.7512 8.96448 10.7474 8.95605 10.7389L6.30855 8.09145C6.2991 8.08201 6.29187 8.06731 6.29187 8.0475C6.29187 8.02769 6.2991 8.013 6.30855 8.00356C6.31799 7.99411 6.33269 7.98688 6.3525 7.98688C6.3723 7.98688 6.387 7.99411 6.39644 8.00356L8.64644 10.2536Z" fill="#037856" stroke="#037856"/>
</svg>
