<svg width="18" height="19" viewBox="0 0 18 19" fill="none" xmlns="http://www.w3.org/2000/svg">
<path opacity="0.4" d="M16 9.5C16 13.366 12.866 16.5 9 16.5C5.13401 16.5 2 13.366 2 9.5C2 5.63401 5.13401 2.5 9 2.5C12.866 2.5 16 5.63401 16 9.5Z" fill="#054E3B" stroke="#054E3B"/>
<path d="M8.05477 12.71C7.91227 12.71 7.76977 12.6575 7.65727 12.545C7.43977 12.3275 7.43977 11.9675 7.65727 11.75L9.90727 9.5L7.65727 7.25C7.43977 7.0325 7.43977 6.6725 7.65727 6.455C7.87477 6.2375 8.23477 6.2375 8.45227 6.455L11.0998 9.1025C11.3173 9.32 11.3173 9.68 11.0998 9.8975L8.45227 12.545C8.33977 12.6575 8.19727 12.71 8.05477 12.71Z" fill="#054E3B"/>
</svg>
