<svg width="19" height="18" viewBox="0 0 19 18" fill="none" xmlns="http://www.w3.org/2000/svg">
<path opacity="0.4" d="M16.5 9C16.5 12.866 13.366 16 9.5 16C5.63401 16 2.5 12.866 2.5 9C2.5 5.13401 5.63401 2 9.5 2C13.366 2 16.5 5.13401 16.5 9Z" fill="white" stroke="white"/>
<path d="M12.5 8.4375H10.0625V6C10.0625 5.6925 9.8075 5.4375 9.5 5.4375C9.1925 5.4375 8.9375 5.6925 8.9375 6V8.4375H6.5C6.1925 8.4375 5.9375 8.6925 5.9375 9C5.9375 9.3075 6.1925 9.5625 6.5 9.5625H8.9375V12C8.9375 12.3075 9.1925 12.5625 9.5 12.5625C9.8075 12.5625 10.0625 12.3075 10.0625 12V9.5625H12.5C12.8075 9.5625 13.0625 9.3075 13.0625 9C13.0625 8.6925 12.8075 8.4375 12.5 8.4375Z" fill="white"/>
</svg>
