<svg width="24" height="25" viewBox="0 0 24 25" fill="none" xmlns="http://www.w3.org/2000/svg">
<path d="M18.9728 15.6865L18.974 15.6884C19.2956 16.2162 19.3522 16.8383 19.1389 17.4042C18.9232 17.9767 18.479 18.41 17.9062 18.5982L17.9038 18.599C16.0093 19.2337 14.0154 19.5468 12.0199 19.5468C10.0245 19.5468 8.03133 19.2337 6.13798 18.5896L6.13711 18.5893C5.5025 18.3749 5.04301 17.9401 4.85341 17.4108L4.85342 17.4108L4.85219 17.4075C4.65187 16.8626 4.71648 16.2575 5.05734 15.686C5.05753 15.6857 5.05773 15.6854 5.05792 15.685L6.06666 14.0171L6.06671 14.0172L6.07013 14.0113C6.20142 13.7862 6.3134 13.4815 6.39225 13.1915C6.47102 12.9018 6.52851 12.5834 6.52851 12.3253V9.79534C6.52851 7.64595 7.77918 5.78023 9.59082 4.87906L9.70938 4.82008L9.77401 4.7045C10.2193 3.90806 11.0574 3.40391 11.9899 3.40391C12.9362 3.40391 13.7532 3.8914 14.1968 4.67622L14.2633 4.79388L14.3853 4.8521C16.2327 5.73401 17.5114 7.61748 17.5114 9.79534V12.3253C17.5114 12.5834 17.5689 12.9018 17.6475 13.1923C17.7264 13.4838 17.8379 13.789 17.9672 14.0169L17.9671 14.017L17.9728 14.0265L18.9728 15.6865Z" fill="#FAFAFA" stroke="#FAFAFA" stroke-width="0.857143"/>
<path d="M9.93194 21.5005C10.0378 21.5124 10.1454 21.5233 10.2534 21.5324C10.8333 21.5832 11.4256 21.6139 12.0199 21.6139C12.6048 21.6139 13.1877 21.5831 13.758 21.5322L13.758 21.5322L13.7606 21.532C13.8148 21.5268 13.8751 21.522 13.9386 21.5169C13.9804 21.5135 14.0235 21.5101 14.0673 21.5063C13.5957 22.1383 12.8437 22.5468 11.9999 22.5468C11.3223 22.5468 10.6549 22.2712 10.1883 21.7878L10.1809 21.78L10.173 21.7727C10.0861 21.6911 10.0054 21.5995 9.93194 21.5005Z" fill="#FAFAFA" stroke="#FAFAFA" stroke-width="0.857143"/>
</svg>
