<svg width="16" height="16" viewBox="0 0 16 16" fill="none" xmlns="http://www.w3.org/2000/svg">
<path d="M11.5006 6.78093L11.5007 6.78098L11.5059 6.77556C11.8629 6.40628 11.8704 5.81551 11.5006 5.44573C11.1337 5.07883 10.5323 5.07883 10.1654 5.44573L7.05301 8.55813L5.83394 7.33906C5.46704 6.97216 4.86564 6.97216 4.49874 7.33906C4.13184 7.70596 4.13184 8.30737 4.49874 8.67427L6.38541 10.5609C6.56114 10.7367 6.80046 10.8378 7.05301 10.8378C7.30555 10.8378 7.54488 10.7367 7.72061 10.5609L11.5006 6.78093ZM1.77745 8C1.77745 4.57213 4.5718 1.77778 7.99967 1.77778C11.4275 1.77778 14.2219 4.57213 14.2219 8C14.2219 11.4279 11.4275 14.2222 7.99967 14.2222C4.5718 14.2222 1.77745 11.4279 1.77745 8Z" fill="#40C9AB" stroke="#40C9AB" stroke-width="0.888889"/>
</svg>
