<svg width="19" height="18" viewBox="0 0 19 18" fill="none" xmlns="http://www.w3.org/2000/svg">
<path opacity="0.4" d="M12.5 16H6.5C4.70614 16 3.25 14.5439 3.25 12.75V5.25C3.25 3.45614 4.70614 2 6.5 2H12.5C14.2939 2 15.75 3.45614 15.75 5.25V12.75C15.75 14.5439 14.2939 16 12.5 16Z" fill="white" stroke="white"/>
<path d="M11.7498 4.2825H7.24984C6.47734 4.2825 5.83984 4.9125 5.83984 5.6925V6.4425C5.83984 7.215 6.46984 7.8525 7.24984 7.8525H11.7498C12.5223 7.8525 13.1598 7.2225 13.1598 6.4425V5.6925C13.1598 4.9125 12.5298 4.2825 11.7498 4.2825Z" fill="white"/>
<path d="M6.6198 11.19C6.5148 11.19 6.4173 11.1675 6.3273 11.13C6.2373 11.0925 6.1548 11.04 6.0873 10.9725C5.9448 10.83 5.8623 10.6425 5.8623 10.44C5.8623 10.3425 5.8848 10.245 5.9223 10.155C5.9598 10.0575 6.0123 9.98249 6.0873 9.90749C6.2598 9.73499 6.5223 9.65249 6.7623 9.70499C6.8073 9.71249 6.8598 9.72749 6.9048 9.74999C6.9498 9.76499 6.9948 9.78749 7.0323 9.81749C7.0773 9.83999 7.1148 9.87749 7.1448 9.90749C7.2123 9.98249 7.2723 10.0575 7.3098 10.155C7.3473 10.245 7.3623 10.3425 7.3623 10.44C7.3623 10.6425 7.2873 10.83 7.1448 10.9725C7.0023 11.115 6.8148 11.19 6.6198 11.19Z" fill="white"/>
<path d="M9.6123 11.19C9.4173 11.19 9.2298 11.115 9.0873 10.9725C8.9448 10.83 8.8623 10.6425 8.8623 10.44C8.8623 10.245 8.9448 10.05 9.0873 9.9075C9.3648 9.63 9.8673 9.63 10.1448 9.9075C10.2123 9.9825 10.2723 10.0575 10.3098 10.155C10.3473 10.245 10.3623 10.3425 10.3623 10.44C10.3623 10.6425 10.2873 10.83 10.1448 10.9725C10.0023 11.115 9.8148 11.19 9.6123 11.19Z" fill="white"/>
<path d="M12.6123 11.19C12.4173 11.19 12.2298 11.115 12.0873 10.9725C11.9448 10.83 11.8623 10.6425 11.8623 10.44C11.8623 10.245 11.9448 10.05 12.0873 9.9075C12.3648 9.63 12.8673 9.63 13.1448 9.9075C13.2873 10.05 13.3698 10.245 13.3698 10.44C13.3698 10.5375 13.3473 10.635 13.3098 10.725C13.2723 10.815 13.2198 10.8975 13.1448 10.9725C13.0023 11.115 12.8148 11.19 12.6123 11.19Z" fill="white"/>
<path d="M6.6198 14.19C6.4173 14.19 6.2298 14.115 6.0873 13.9725C5.9448 13.83 5.8623 13.6425 5.8623 13.44C5.8623 13.245 5.9448 13.05 6.0873 12.9075C6.1548 12.84 6.2373 12.7875 6.3273 12.75C6.5148 12.675 6.7173 12.675 6.9048 12.75C6.9498 12.765 6.9948 12.7875 7.0323 12.8175C7.0773 12.84 7.1148 12.8775 7.1448 12.9075C7.2873 13.05 7.3698 13.245 7.3698 13.44C7.3698 13.6425 7.2873 13.83 7.1448 13.9725C7.0023 14.115 6.8148 14.19 6.6198 14.19Z" fill="white"/>
<path d="M9.6123 14.19C9.4173 14.19 9.2298 14.115 9.0873 13.9725C8.9448 13.83 8.8623 13.6425 8.8623 13.44C8.8623 13.3875 8.86981 13.3425 8.87731 13.29C8.89231 13.245 8.9073 13.2 8.9223 13.155C8.9448 13.11 8.9673 13.065 8.9898 13.02C9.0198 12.9825 9.0498 12.945 9.0873 12.9075C9.1548 12.84 9.23731 12.7875 9.32731 12.75C9.60481 12.6375 9.9348 12.6975 10.1448 12.9075C10.2873 13.05 10.3623 13.245 10.3623 13.44C10.3623 13.6425 10.2873 13.83 10.1448 13.9725C10.0773 14.04 9.9948 14.0925 9.9048 14.13C9.8148 14.1675 9.7173 14.19 9.6123 14.19Z" fill="white"/>
<path d="M12.6126 14.19C12.5151 14.19 12.4176 14.1675 12.3276 14.13C12.2376 14.0925 12.1551 14.04 12.0876 13.9725C11.9451 13.83 11.8701 13.6425 11.8701 13.44C11.8701 13.245 11.9451 13.05 12.0876 12.9075C12.2901 12.6975 12.6276 12.6375 12.9051 12.75C12.9951 12.7875 13.0776 12.84 13.1451 12.9075C13.2876 13.05 13.3626 13.245 13.3626 13.44C13.3626 13.6425 13.2876 13.83 13.1451 13.9725C13.0026 14.115 12.8151 14.19 12.6126 14.19Z" fill="white"/>
</svg>
