<svg width="16" height="16" viewBox="0 0 16 16" fill="none" xmlns="http://www.w3.org/2000/svg">
<path d="M11.7468 7.16673C11.4602 7.16673 11.2335 6.9334 11.2335 6.6534C11.2335 6.40673 10.9868 5.8934 10.5735 5.44673C10.1668 5.0134 9.72016 4.76007 9.34683 4.76007C9.06016 4.76007 8.8335 4.52673 8.8335 4.24673C8.8335 3.96673 9.06683 3.7334 9.34683 3.7334C10.0135 3.7334 10.7135 4.0934 11.3268 4.74007C11.9002 5.34673 12.2668 6.10007 12.2668 6.64673C12.2668 6.9334 12.0335 7.16673 11.7468 7.16673Z" fill="white"/>
<path d="M14.1532 7.16659C13.8665 7.16659 13.6398 6.93325 13.6398 6.65325C13.6398 4.28659 11.7132 2.36659 9.35318 2.36659C9.06651 2.36659 8.83984 2.13325 8.83984 1.85325C8.83984 1.57325 9.06651 1.33325 9.34651 1.33325C12.2798 1.33325 14.6665 3.71992 14.6665 6.65325C14.6665 6.93325 14.4332 7.16659 14.1532 7.16659Z" fill="white"/>
<path d="M7.36683 9.96659L6.1335 11.1999C5.8735 11.4599 5.46016 11.4599 5.1935 11.2066C5.12016 11.1333 5.04683 11.0666 4.9735 10.9933C4.28683 10.2999 3.66683 9.57325 3.1135 8.81325C2.56683 8.05325 2.12683 7.29325 1.80683 6.53992C1.4935 5.77992 1.3335 5.05325 1.3335 4.35992C1.3335 3.90659 1.4135 3.47325 1.5735 3.07325C1.7335 2.66659 1.98683 2.29325 2.34016 1.95992C2.76683 1.53992 3.2335 1.33325 3.72683 1.33325C3.9135 1.33325 4.10016 1.37325 4.26683 1.45325C4.44016 1.53325 4.5935 1.65325 4.7135 1.82659L6.26016 4.00659C6.38016 4.17325 6.46683 4.32659 6.52683 4.47325C6.58683 4.61325 6.62016 4.75325 6.62016 4.87992C6.62016 5.03992 6.5735 5.19992 6.48016 5.35325C6.3935 5.50659 6.26683 5.66659 6.10683 5.82659L5.60016 6.35325C5.52683 6.42659 5.4935 6.51325 5.4935 6.61992C5.4935 6.67325 5.50016 6.71992 5.5135 6.77325C5.5335 6.82659 5.5535 6.86659 5.56683 6.90659C5.68683 7.12659 5.8935 7.41325 6.18683 7.75992C6.48683 8.10659 6.80683 8.45992 7.1535 8.81325C7.22016 8.87992 7.2935 8.94659 7.36016 9.01325C7.62683 9.27325 7.6335 9.69992 7.36683 9.96659Z" fill="white"/>
<path d="M14.6466 12.2201C14.6466 12.4068 14.6132 12.6001 14.5466 12.7868C14.5266 12.8401 14.5066 12.8934 14.4799 12.9468C14.3666 13.1868 14.2199 13.4134 14.0266 13.6268C13.6999 13.9868 13.3399 14.2468 12.9332 14.4134C12.9266 14.4134 12.9199 14.4201 12.9132 14.4201C12.5199 14.5801 12.0932 14.6668 11.6332 14.6668C10.9532 14.6668 10.2266 14.5068 9.4599 14.1801C8.69324 13.8534 7.92657 13.4134 7.16657 12.8601C6.90657 12.6668 6.64657 12.4734 6.3999 12.2668L8.5799 10.0868C8.76657 10.2268 8.93324 10.3334 9.07324 10.4068C9.10657 10.4201 9.14657 10.4401 9.19324 10.4601C9.24657 10.4801 9.2999 10.4868 9.3599 10.4868C9.47324 10.4868 9.5599 10.4468 9.63324 10.3734L10.1399 9.87344C10.3066 9.70677 10.4666 9.58011 10.6199 9.50011C10.7732 9.40677 10.9266 9.36011 11.0932 9.36011C11.2199 9.36011 11.3532 9.38677 11.4999 9.44677C11.6466 9.50677 11.7999 9.59344 11.9666 9.70677L14.1732 11.2734C14.3466 11.3934 14.4666 11.5334 14.5399 11.7001C14.6066 11.8668 14.6466 12.0334 14.6466 12.2201Z" fill="white"/>
</svg>
