<svg width="18" height="18" viewBox="0 0 18 18" fill="none" xmlns="http://www.w3.org/2000/svg">
<path opacity="0.4" d="M16 9C16 12.866 12.866 16 9 16C5.13401 16 2 12.866 2 9C2 5.13401 5.13401 2 9 2C12.866 2 16 5.13401 16 9Z" fill="#037856" stroke="#037856"/>
<path d="M8.05477 12.21C7.91227 12.21 7.76977 12.1575 7.65727 12.045C7.43977 11.8275 7.43977 11.4675 7.65727 11.25L9.90727 9L7.65727 6.75C7.43977 6.5325 7.43977 6.1725 7.65727 5.955C7.87477 5.7375 8.23477 5.7375 8.45227 5.955L11.0998 8.6025C11.3173 8.82 11.3173 9.18 11.0998 9.3975L8.45227 12.045C8.33977 12.1575 8.19727 12.21 8.05477 12.21Z" fill="#037856"/>
</svg>
