<svg width="18" height="18" viewBox="0 0 18 18" fill="none" xmlns="http://www.w3.org/2000/svg">
<g id="vuesax/bulk/close-circle">
<g id="close-circle">
<path id="Vector" opacity="0.4" d="M16 9C16 12.866 12.866 16 9 16C5.13401 16 2 12.866 2 9C2 5.13401 5.13401 2 9 2C12.866 2 16 5.13401 16 9Z" fill="white" stroke="white"/>
<path id="Vector_2" d="M9.795 8.99953L11.52 7.27453C11.7375 7.05703 11.7375 6.69703 11.52 6.47953C11.3025 6.26203 10.9425 6.26203 10.725 6.47953L9 8.20453L7.275 6.47953C7.0575 6.26203 6.6975 6.26203 6.48 6.47953C6.2625 6.69703 6.2625 7.05703 6.48 7.27453L8.205 8.99953L6.48 10.7245C6.2625 10.942 6.2625 11.302 6.48 11.5195C6.5925 11.632 6.735 11.6845 6.8775 11.6845C7.02 11.6845 7.1625 11.632 7.275 11.5195L9 9.79453L10.725 11.5195C10.8375 11.632 10.98 11.6845 11.1225 11.6845C11.265 11.6845 11.4075 11.632 11.52 11.5195C11.7375 11.302 11.7375 10.942 11.52 10.7245L9.795 8.99953Z" fill="white"/>
</g>
</g>
</svg>
