<svg width="19" height="18" viewBox="0 0 19 18" fill="none" xmlns="http://www.w3.org/2000/svg">
<path opacity="0.4" d="M13.7075 8.1425H15.875C16.0114 8.1425 16.125 8.25614 16.125 8.3925V12.3225C16.125 13.5386 15.7045 14.4457 15.0602 15.0509C14.4109 15.6606 13.4954 16 12.4475 16H6.5525C5.50461 16 4.58905 15.6606 3.9398 15.0509C3.2955 14.4457 2.875 13.5386 2.875 12.3225V5.6775C2.875 4.46141 3.2955 3.55428 3.9398 2.94915C4.58905 2.33936 5.50461 2 6.5525 2H9.7325C9.86886 2 9.9825 2.11364 9.9825 2.25V4.4175C9.9825 6.47114 11.6539 8.1425 13.7075 8.1425Z" fill="white" stroke="white"/>
<path d="M12.35 1.65786C12.0425 1.35036 11.51 1.56036 11.51 1.98786V4.60536C11.51 5.70036 12.44 6.60786 13.5725 6.60786C14.285 6.61536 15.275 6.61536 16.1225 6.61536C16.55 6.61536 16.775 6.11286 16.475 5.81286C15.395 4.72536 13.46 2.76786 12.35 1.65786Z" fill="white"/>
<path d="M9.1475 9.3525L7.6475 7.8525C7.64 7.845 7.6325 7.845 7.6325 7.8375C7.5875 7.7925 7.5275 7.755 7.4675 7.725C7.46 7.725 7.46 7.725 7.4525 7.725C7.3925 7.7025 7.3325 7.695 7.2725 7.6875C7.25 7.6875 7.235 7.6875 7.2125 7.6875C7.1675 7.6875 7.115 7.7025 7.07 7.7175C7.0475 7.725 7.0325 7.7325 7.0175 7.74C6.9575 7.77 6.8975 7.8 6.8525 7.8525L5.3525 9.3525C5.135 9.57 5.135 9.93 5.3525 10.1475C5.57 10.365 5.93 10.365 6.1475 10.1475L6.6875 9.6075V12.75C6.6875 13.0575 6.9425 13.3125 7.25 13.3125C7.5575 13.3125 7.8125 13.0575 7.8125 12.75V9.6075L8.3525 10.1475C8.465 10.26 8.6075 10.3125 8.75 10.3125C8.8925 10.3125 9.035 10.26 9.1475 10.1475C9.365 9.93 9.365 9.57 9.1475 9.3525Z" fill="white"/>
</svg>
