<svg width="22" height="22" viewBox="0 0 22 22" fill="#ffffff" xmlns="http://www.w3.org/2000/svg">
<path d="M11 0.475098C5.225 0.475098 0.5 5.2001 0.5 10.9751C0.5 16.7501 5.225 21.4751 11 21.4751C16.775 21.4751 21.5 16.7501 21.5 10.9751C21.5 5.2001 16.775 0.475098 11 0.475098ZM7.14875 13.6001C6.62262 13.6171 6.10352 13.4756 5.65886 13.1938C5.21421 12.912 4.86453 12.5031 4.65525 12.0201C4.44596 11.5371 4.38674 11.0023 4.48526 10.4852C4.58377 9.96808 4.83549 9.49254 5.20772 9.12032C5.57994 8.74809 6.05549 8.49637 6.57259 8.39785C7.0897 8.29933 7.62448 8.35856 8.1075 8.56785C8.59052 8.77713 8.99945 9.1268 9.28121 9.57146C9.56296 10.0161 9.70452 10.5352 9.6875 11.0613C9.66594 11.7278 9.39154 12.3611 8.92003 12.8326C8.44851 13.3041 7.81522 13.5785 7.14875 13.6001ZM15.0238 13.6001C14.4976 13.6171 13.9785 13.4756 13.5339 13.1938C13.0892 12.912 12.7395 12.5031 12.5302 12.0201C12.321 11.5371 12.2617 11.0023 12.3603 10.4852C12.4588 9.96808 12.7105 9.49254 13.0827 9.12032C13.4549 8.74809 13.9305 8.49637 14.4476 8.39785C14.9647 8.29933 15.4995 8.35856 15.9825 8.56785C16.4655 8.77713 16.8745 9.1268 17.1562 9.57146C17.438 10.0161 17.5795 10.5352 17.5625 11.0613C17.5409 11.7278 17.2665 12.3611 16.795 12.8326C16.3235 13.3041 15.6902 13.5785 15.0238 13.6001Z" fill="#054E3B"/>
</svg>
