<svg width="19" height="18" viewBox="0 0 19 18" fill="none" xmlns="http://www.w3.org/2000/svg">
<path opacity="0.4" d="M16.625 9C16.625 12.935 13.435 16.125 9.5 16.125C5.56497 16.125 2.375 12.935 2.375 9C2.375 5.06497 5.56497 1.875 9.5 1.875C13.435 1.875 16.625 5.06497 16.625 9Z" fill="#037856" stroke="#037856" stroke-width="0.75"/>
<path d="M10.4454 12.2099C10.3029 12.2099 10.1604 12.1574 10.0479 12.0449L7.40043 9.39737C7.18293 9.17987 7.18293 8.81987 7.40043 8.60237L10.0479 5.95487C10.2654 5.73737 10.6254 5.73737 10.8429 5.95487C11.0604 6.17237 11.0604 6.53237 10.8429 6.74987L8.59293 8.99987L10.8429 11.2499C11.0604 11.4674 11.0604 11.8274 10.8429 12.0449C10.7379 12.1574 10.5954 12.2099 10.4454 12.2099Z" fill="#037856"/>
</svg>
