<svg width="16" height="17" viewBox="0 0 16 17" fill="none" xmlns="http://www.w3.org/2000/svg">
<path d="M11.7468 7.66667C11.4602 7.66667 11.2335 7.43334 11.2335 7.15334C11.2335 6.90667 10.9868 6.39334 10.5735 5.94667C10.1668 5.51334 9.72016 5.26 9.34683 5.26C9.06016 5.26 8.8335 5.02667 8.8335 4.74667C8.8335 4.46667 9.06683 4.23334 9.34683 4.23334C10.0135 4.23334 10.7135 4.59334 11.3268 5.24C11.9002 5.84667 12.2668 6.6 12.2668 7.14667C12.2668 7.43334 12.0335 7.66667 11.7468 7.66667Z" fill="#054E3B"/>
<path d="M14.1534 7.66665C13.8668 7.66665 13.6401 7.43331 13.6401 7.15331C13.6401 4.78665 11.7134 2.86665 9.35342 2.86665C9.06675 2.86665 8.84009 2.63331 8.84009 2.35331C8.84009 2.07331 9.06675 1.83331 9.34675 1.83331C12.2801 1.83331 14.6668 4.21998 14.6668 7.15331C14.6668 7.43331 14.4334 7.66665 14.1534 7.66665Z" fill="#054E3B"/>
<path d="M7.36683 10.4666L6.1335 11.7C5.8735 11.96 5.46016 11.96 5.1935 11.7066C5.12016 11.6333 5.04683 11.5666 4.9735 11.4933C4.28683 10.8 3.66683 10.0733 3.1135 9.31331C2.56683 8.55331 2.12683 7.79331 1.80683 7.03998C1.4935 6.27998 1.3335 5.55331 1.3335 4.85998C1.3335 4.40665 1.4135 3.97331 1.5735 3.57331C1.7335 3.16665 1.98683 2.79331 2.34016 2.45998C2.76683 2.03998 3.2335 1.83331 3.72683 1.83331C3.9135 1.83331 4.10016 1.87331 4.26683 1.95331C4.44016 2.03331 4.5935 2.15331 4.7135 2.32665L6.26016 4.50665C6.38016 4.67331 6.46683 4.82665 6.52683 4.97331C6.58683 5.11331 6.62016 5.25331 6.62016 5.37998C6.62016 5.53998 6.5735 5.69998 6.48016 5.85331C6.3935 6.00665 6.26683 6.16665 6.10683 6.32665L5.60016 6.85331C5.52683 6.92665 5.4935 7.01331 5.4935 7.11998C5.4935 7.17331 5.50016 7.21998 5.5135 7.27331C5.5335 7.32665 5.5535 7.36665 5.56683 7.40665C5.68683 7.62665 5.8935 7.91331 6.18683 8.25998C6.48683 8.60665 6.80683 8.95998 7.1535 9.31331C7.22016 9.37998 7.2935 9.44665 7.36016 9.51331C7.62683 9.77331 7.6335 10.2 7.36683 10.4666Z" fill="#054E3B"/>
<path d="M14.6468 12.72C14.6468 12.9067 14.6135 13.1 14.5468 13.2867C14.5268 13.34 14.5068 13.3933 14.4801 13.4467C14.3668 13.6867 14.2201 13.9133 14.0268 14.1267C13.7001 14.4867 13.3401 14.7467 12.9335 14.9133C12.9268 14.9133 12.9201 14.92 12.9135 14.92C12.5201 15.08 12.0935 15.1667 11.6335 15.1667C10.9535 15.1667 10.2268 15.0067 9.46015 14.68C8.69348 14.3533 7.92681 13.9133 7.16681 13.36C6.90681 13.1667 6.64681 12.9733 6.40015 12.7667L8.58015 10.5867C8.76681 10.7267 8.93348 10.8333 9.07348 10.9067C9.10681 10.92 9.14681 10.94 9.19348 10.96C9.24681 10.98 9.30015 10.9867 9.36015 10.9867C9.47348 10.9867 9.56015 10.9467 9.63348 10.8733L10.1401 10.3733C10.3068 10.2067 10.4668 10.08 10.6201 9.99999C10.7735 9.90665 10.9268 9.85999 11.0935 9.85999C11.2201 9.85999 11.3535 9.88665 11.5001 9.94665C11.6468 10.0067 11.8001 10.0933 11.9668 10.2067L14.1735 11.7733C14.3468 11.8933 14.4668 12.0333 14.5401 12.2C14.6068 12.3667 14.6468 12.5333 14.6468 12.72Z" fill="#054E3B"/>
</svg>
