<svg width="19" height="19" viewBox="0 0 19 19" fill="none" xmlns="http://www.w3.org/2000/svg">
<path opacity="0.4" d="M16.5 9.5C16.5 13.366 13.366 16.5 9.5 16.5C5.63401 16.5 2.5 13.366 2.5 9.5C2.5 5.63401 5.63401 2.5 9.5 2.5C13.366 2.5 16.5 5.63401 16.5 9.5Z" fill="white" stroke="white"/>
<path d="M8.55477 12.71C8.41227 12.71 8.26977 12.6575 8.15727 12.545C7.93977 12.3275 7.93977 11.9675 8.15727 11.75L10.4073 9.5L8.15727 7.25C7.93977 7.0325 7.93977 6.6725 8.15727 6.455C8.37477 6.2375 8.73477 6.2375 8.95227 6.455L11.5998 9.1025C11.8173 9.32 11.8173 9.68 11.5998 9.8975L8.95227 12.545C8.83977 12.6575 8.69727 12.71 8.55477 12.71Z" fill="white"/>
</svg>
