<svg width="19" height="18" viewBox="0 0 19 18" fill="#ffffff" xmlns="http://www.w3.org/2000/svg">
<path d="M13.625 0.0375977H5.375C4.09906 0.0389625 2.87578 0.546431 1.97356 1.44865C1.07133 2.35088 0.563865 3.57416 0.5625 4.8501V13.1001C0.563865 14.376 1.07133 15.5993 1.97356 16.5015C2.87578 17.4038 4.09906 17.9112 5.375 17.9126H13.625C14.9009 17.9112 16.1242 17.4038 17.0264 16.5015C17.9287 15.5993 18.4361 14.376 18.4375 13.1001V4.8501C18.4361 3.57416 17.9287 2.35088 17.0264 1.44865C16.1242 0.546431 14.9009 0.0389625 13.625 0.0375977ZM9.5 13.1001C8.68415 13.1001 7.88663 12.8582 7.20827 12.4049C6.52992 11.9516 6.00121 11.3074 5.689 10.5537C5.37679 9.79992 5.2951 8.97052 5.45426 8.17035C5.61343 7.37018 6.00629 6.63517 6.58318 6.05828C7.16008 5.48139 7.89508 5.08852 8.69525 4.92936C9.49542 4.77019 10.3248 4.85188 11.0786 5.16409C11.8323 5.47631 12.4766 6.00502 12.9298 6.68337C13.3831 7.36172 13.625 8.15925 13.625 8.9751C13.6239 10.0688 13.1889 11.1173 12.4156 11.8907C11.6422 12.664 10.5937 13.099 9.5 13.1001ZM14.6562 4.8501C14.4523 4.8501 14.2529 4.78962 14.0833 4.6763C13.9137 4.56299 13.7816 4.40193 13.7035 4.21349C13.6254 4.02505 13.605 3.8177 13.6448 3.61766C13.6846 3.41762 13.7828 3.23387 13.927 3.08964C14.0713 2.94542 14.255 2.8472 14.4551 2.80741C14.6551 2.76762 14.8625 2.78804 15.0509 2.8661C15.2393 2.94415 15.4004 3.07633 15.5137 3.24592C15.627 3.4155 15.6875 3.61489 15.6875 3.81885C15.6875 4.09235 15.5788 4.35465 15.3855 4.54805C15.1921 4.74145 14.9298 4.8501 14.6562 4.8501ZM12.25 8.9751C12.25 9.519 12.0887 10.0507 11.7865 10.5029C11.4844 10.9552 11.0549 11.3076 10.5524 11.5158C10.0499 11.7239 9.49695 11.7784 8.9635 11.6723C8.43005 11.5661 7.94005 11.3042 7.55546 10.9196C7.17086 10.535 6.90895 10.045 6.80284 9.5116C6.69673 8.97815 6.75119 8.42521 6.95933 7.92272C7.16747 7.42022 7.51995 6.99073 7.97218 6.68856C8.42442 6.38638 8.9561 6.2251 9.5 6.2251C10.2293 6.2251 10.9288 6.51483 11.4445 7.03055C11.9603 7.54628 12.25 8.24575 12.25 8.9751Z" fill="#054E3B"/>
</svg>
