<svg width="17" height="18" viewBox="0 0 17 18" fill="#ffffff" xmlns="http://www.w3.org/2000/svg">
<path d="M14.9167 0.725098C15.4029 0.725098 15.8692 0.918252 16.213 1.26207C16.5568 1.60589 16.75 2.0722 16.75 2.55843V15.3918C16.75 15.878 16.5568 16.3443 16.213 16.6881C15.8692 17.0319 15.4029 17.2251 14.9167 17.2251H2.08333C1.5971 17.2251 1.13079 17.0319 0.786971 16.6881C0.443154 16.3443 0.25 15.878 0.25 15.3918V2.55843C0.25 2.0722 0.443154 1.60589 0.786971 1.26207C1.13079 0.918252 1.5971 0.725098 2.08333 0.725098H14.9167ZM14.4583 14.9334V10.0751C14.4583 9.28254 14.1435 8.52245 13.5831 7.96203C13.0226 7.40161 12.2626 7.08676 11.47 7.08676C10.6908 7.08676 9.78333 7.56343 9.34333 8.27843V7.26093H6.78583V14.9334H9.34333V10.4143C9.34333 9.70843 9.91167 9.13093 10.6175 9.13093C10.9579 9.13093 11.2843 9.26614 11.525 9.50681C11.7656 9.74748 11.9008 10.0739 11.9008 10.4143V14.9334H14.4583ZM3.80667 5.82176C4.2151 5.82176 4.60681 5.65952 4.89561 5.37071C5.18442 5.0819 5.34667 4.6902 5.34667 4.28176C5.34667 3.42926 4.65917 2.7326 3.80667 2.7326C3.3958 2.7326 3.00177 2.89581 2.71124 3.18634C2.42072 3.47686 2.2575 3.8709 2.2575 4.28176C2.2575 5.13426 2.95417 5.82176 3.80667 5.82176ZM5.08083 14.9334V7.26093H2.54167V14.9334H5.08083Z" fill="#054E3B"/>
</svg>
