<svg width="40" height="40" viewBox="0 0 40 40" fill="none" xmlns="http://www.w3.org/2000/svg">
<rect width="40" height="40" rx="20" fill="#037856"/>
<path d="M27 15.125C27 15.8844 26.3844 16.5 25.625 16.5C24.8656 16.5 24.25 15.8844 24.25 15.125C24.25 14.3656 24.8656 13.75 25.625 13.75C26.3844 13.75 27 14.3656 27 15.125Z" fill="white" stroke="white"/>
<path d="M27 15.125C27 15.8844 26.3844 16.5 25.625 16.5C24.8656 16.5 24.25 15.8844 24.25 15.125C24.25 14.3656 24.8656 13.75 25.625 13.75C26.3844 13.75 27 14.3656 27 15.125Z" fill="white" stroke="white"/>
<path d="M26.54 17.9825C26.015 18.1475 25.4375 18.1775 24.8375 18.0275C23.8325 17.765 23.015 16.9625 22.7375 15.9575C22.6025 15.47 22.595 14.99 22.6775 14.555C22.775 14.075 22.4375 13.625 21.9575 13.625H16.25C14 13.625 12.5 14.75 12.5 17.375V22.625C12.5 25.25 14 26.375 16.25 26.375H23.75C26 26.375 27.5 25.25 27.5 22.625V18.695C27.5 18.2 27.02 17.825 26.54 17.9825ZM22.64 19.3625L21.755 20.0675C21.26 20.465 20.63 20.66 20 20.66C19.37 20.66 18.7325 20.465 18.245 20.0675L15.8975 18.1925C15.6575 17.9975 15.62 17.6375 15.8075 17.3975C16.0025 17.1575 16.355 17.1125 16.595 17.3075L18.9425 19.1825C19.5125 19.64 20.48 19.64 21.05 19.1825L21.935 18.4775C22.175 18.2825 22.535 18.32 22.7225 18.5675C22.9175 18.8075 22.88 19.1675 22.64 19.3625Z" fill="white"/>
</svg>
