<svg width="19" height="18" viewBox="0 0 19 18" fill="none" xmlns="http://www.w3.org/2000/svg">
<g id="vuesax/bulk/arrow-circle-right">
<g id="arrow-circle-right">
<path id="Vector" opacity="0.4" d="M16.5 9C16.5 12.866 13.366 16 9.5 16C5.63401 16 2.5 12.866 2.5 9C2.5 5.13401 5.63401 2 9.5 2C13.366 2 16.5 5.13401 16.5 9Z" fill="#037856" stroke="#037856"/>
<path id="Vector_2" d="M8.55501 12.21C8.41251 12.21 8.27001 12.1575 8.15751 12.045C7.94001 11.8275 7.94001 11.4675 8.15751 11.25L10.4075 9L8.15751 6.75C7.94001 6.5325 7.94001 6.1725 8.15751 5.955C8.37501 5.7375 8.73501 5.7375 8.95251 5.955L11.6 8.6025C11.8175 8.82 11.8175 9.18 11.6 9.3975L8.95251 12.045C8.84001 12.1575 8.69751 12.21 8.55501 12.21Z" fill="#037856"/>
</g>
</g>
</svg>
