<svg width="42" height="43" viewBox="0 0 42 43" fill="none" xmlns="http://www.w3.org/2000/svg">
<rect y="0.5" width="42" height="42" rx="21" fill="#037856"/>
<path d="M17.6302 20.32C16.9441 20.32 16.3802 20.8839 16.3802 21.57C16.3802 22.2472 16.9267 22.8232 17.6354 22.81H22.6002V30.64C22.6002 30.8401 22.4379 31 22.2402 31C19.4146 31 17.0461 30.0162 15.385 28.3552C13.724 26.6942 12.7402 24.3256 12.7402 21.5C12.7402 18.6744 13.724 16.3058 15.385 14.6448C17.0461 12.9838 19.4146 12 22.2402 12C22.4409 12 22.6037 12.1544 22.6102 12.3662V20.32H17.6302Z" fill="white" stroke="white"/>
<path d="M29.1854 21.393L29.1861 21.3936C29.2833 21.4908 29.2742 21.6344 29.1885 21.7145L29.1818 21.7207L29.1754 21.7271L26.3361 24.5765C26.336 24.5766 26.3359 24.5767 26.3358 24.5767C26.2846 24.6278 26.224 24.65 26.1596 24.65C26.0951 24.65 26.0345 24.6278 25.9832 24.5765C25.8884 24.4817 25.8884 24.3183 25.9832 24.2236L27.5432 22.6636L28.3967 21.81H27.1896H23.5996V21.31H27.1996H28.4067L27.5532 20.4565L25.9932 18.8965C25.8984 18.8017 25.8984 18.6383 25.9932 18.5436C26.0878 18.4489 26.2511 18.4488 26.3458 18.5434C26.3459 18.5434 26.346 18.5435 26.3461 18.5436L29.1854 21.393Z" fill="white" stroke="white"/>
</svg>
