<svg width="42" height="43" viewBox="0 0 42 43" fill="none" xmlns="http://www.w3.org/2000/svg">
<rect y="0.5" width="42" height="42" rx="21" fill="white"/>
<path d="M27.9116 24.248L27.913 24.2502C28.2233 24.7594 28.2775 25.3584 28.0721 25.9037C27.8637 26.4566 27.4355 26.8737 26.8839 27.055L26.8839 27.055L26.8811 27.0559C24.9942 27.6881 23.0079 28 21.0199 28C19.032 28 17.0466 27.6881 15.161 27.0466L15.16 27.0463C14.5429 26.8378 14.1019 26.4172 13.9207 25.9114L13.9207 25.9114L13.9192 25.9075C13.7272 25.3851 13.7876 24.8026 14.1186 24.2475C14.1188 24.2471 14.119 24.2467 14.1193 24.2463L15.1278 22.5788L15.1278 22.5788L15.1318 22.5719C15.2675 22.3394 15.3815 22.0281 15.4612 21.7349C15.5408 21.4422 15.5999 21.1169 15.5999 20.85V18.32C15.5999 16.199 16.8341 14.3574 18.6226 13.4677L18.761 13.3989L18.8364 13.264C19.2692 12.4898 20.0836 12 20.9899 12C21.9106 12 22.7038 12.4737 23.1347 13.236L23.2122 13.3733L23.3545 13.4412C25.1781 14.3118 26.4399 16.1708 26.4399 18.32V20.85C26.4399 21.1169 26.4991 21.4421 26.5786 21.7356C26.6583 22.0303 26.7717 22.3417 26.9051 22.5768L26.905 22.5769L26.9117 22.588L27.9116 24.248Z" fill="#037856" stroke="#037856"/>
<path d="M19.0952 30.1143C19.1457 30.1193 19.1963 30.1239 19.2471 30.1282C19.8286 30.1792 20.423 30.21 21.0197 30.21C21.607 30.21 22.1921 30.1791 22.7642 30.128L22.7642 30.128L22.7671 30.1277C22.8101 30.1237 22.8577 30.1197 22.9083 30.1156C22.4471 30.6572 21.7618 31 20.9997 31C20.3408 31 19.6921 30.7319 19.2395 30.2628L19.2308 30.2538L19.2217 30.2452C19.1779 30.2042 19.1357 30.1604 19.0952 30.1143Z" fill="#037856" stroke="#037856"/>
</svg>
