<svg width="18" height="18" viewBox="0 0 18 18" fill="none" xmlns="http://www.w3.org/2000/svg">
<g id="vuesax/bulk/arrow-circle-right">
<g id="arrow-circle-right">
<path id="Vector" opacity="0.4" d="M16 9C16 12.866 12.866 16 9 16C5.13401 16 2 12.866 2 9C2 5.13401 5.13401 2 9 2C12.866 2 16 5.13401 16 9Z" fill="#037856" stroke="#037856"/>
<path id="Vector_2" d="M8.05501 12.21C7.91251 12.21 7.77001 12.1575 7.65751 12.045C7.44001 11.8275 7.44001 11.4675 7.65751 11.25L9.90751 9L7.65751 6.75C7.44001 6.5325 7.44001 6.1725 7.65751 5.955C7.87501 5.7375 8.23501 5.7375 8.45251 5.955L11.1 8.6025C11.3175 8.82 11.3175 9.18 11.1 9.3975L8.45251 12.045C8.34001 12.1575 8.19751 12.21 8.05501 12.21Z" fill="#037856"/>
</g>
</g>
</svg>
