<svg width="16" height="16" viewBox="0 0 16 16" fill="none" xmlns="http://www.w3.org/2000/svg">
<path d="M1.77745 8.00001C1.77745 4.57214 4.5718 1.77779 7.99967 1.77779C11.4275 1.77779 14.2219 4.57214 14.2219 8.00001C14.2219 11.4279 11.4275 14.2222 7.99967 14.2222C4.5718 14.2222 1.77745 11.4279 1.77745 8.00001ZM9.88634 10.8311C10.1245 10.8311 10.3662 10.742 10.5539 10.5543C10.9208 10.1874 10.9208 9.58597 10.5539 9.21907L9.33488 8.00001L10.5539 6.78095C10.9208 6.41405 10.9208 5.81264 10.5539 5.44574C10.187 5.07884 9.58564 5.07884 9.21874 5.44574L7.99967 6.6648L6.78061 5.44574C6.41371 5.07884 5.8123 5.07884 5.44541 5.44574C5.07851 5.81264 5.07851 6.41405 5.44541 6.78095L6.66447 8.00001L5.44541 9.21907C5.0785 9.58597 5.07851 10.1874 5.4454 10.5543C5.63315 10.742 5.87483 10.8311 6.11301 10.8311C6.35119 10.8311 6.59287 10.742 6.78061 10.5543L7.99967 9.33522L9.21874 10.5543C9.40648 10.742 9.64816 10.8311 9.88634 10.8311Z" fill="#CA4B3D" stroke="#CA4B3D" stroke-width="0.888889"/>
</svg>
