<svg width="24" height="24" viewBox="0 0 24 24" fill="none" xmlns="http://www.w3.org/2000/svg">
<g id="vuesax/bulk/search-normal">
<g id="search-normal">
<path id="Vector" opacity="0.4" d="M20.5 11.5C20.5 16.4706 16.4706 20.5 11.5 20.5C6.52944 20.5 2.5 16.4706 2.5 11.5C2.5 6.52944 6.52944 2.5 11.5 2.5C16.4706 2.5 20.5 6.52944 20.5 11.5Z" fill="#037856" stroke="#037856"/>
<path id="Vector_2" d="M21.2996 21.5C21.2452 21.5 21.1945 21.4778 21.1631 21.4464L19.3031 19.5864C19.2328 19.5161 19.223 19.3903 19.3062 19.3005C19.3774 19.2327 19.5016 19.2246 19.5901 19.3076L21.446 21.1635C21.5147 21.2322 21.5256 21.3537 21.4488 21.4429C21.4016 21.4823 21.3471 21.5 21.2996 21.5Z" fill="#037856" stroke="#037856"/>
</g>
</g>
</svg>
