<svg width="24" height="24" viewBox="0 0 24 24" fill="none" xmlns="http://www.w3.org/2000/svg">
<path opacity="0.4" d="M21.5 12C21.5 17.2467 17.2467 21.5 12 21.5C6.75329 21.5 2.5 17.2467 2.5 12C2.5 6.75329 6.75329 2.5 12 2.5C17.2467 2.5 21.5 6.75329 21.5 12Z" fill="#037856" stroke="#037856"/>
<path d="M11.6464 13.5536L11.9999 13.9072L12.3535 13.5536L15.3535 10.5536C15.4482 10.4589 15.6116 10.4589 15.7064 10.5536C15.8011 10.6483 15.8011 10.8118 15.7064 10.9065L12.1764 14.4365C12.1251 14.4878 12.0645 14.51 11.9999 14.51C11.9354 14.51 11.8748 14.4878 11.8235 14.4365L8.29347 10.9065C8.19873 10.8118 8.19873 10.6483 8.29347 10.5536C8.3882 10.4589 8.55162 10.4589 8.64636 10.5536L11.6464 13.5536Z" fill="#037856" stroke="#037856"/>
</svg>
