<svg width="19" height="18" viewBox="0 0 19 18" fill="none" xmlns="http://www.w3.org/2000/svg">
<g id="vuesax/bold/close-circle">
<g id="close-circle">
<path id="Vector" d="M2.5 9C2.5 5.14364 5.64364 2 9.5 2C13.3564 2 16.5 5.14364 16.5 9C16.5 12.8564 13.3564 16 9.5 16C5.64364 16 2.5 12.8564 2.5 9ZM11.6225 12.185C11.8905 12.185 12.1623 12.0848 12.3736 11.8736C12.7863 11.4608 12.7863 10.7842 12.3736 10.3714L11.0021 9L12.3736 7.62855C12.7863 7.21579 12.7863 6.53921 12.3736 6.12645C11.9608 5.71368 11.2842 5.71368 10.8714 6.12645L9.5 7.49789L8.12855 6.12645C7.71579 5.71368 7.03921 5.71368 6.62645 6.12645C6.21368 6.53921 6.21368 7.21579 6.62645 7.62855L7.99789 9L6.62645 10.3714C6.21368 10.7842 6.21368 11.4608 6.62645 11.8736C6.83766 12.0848 7.10955 12.185 7.3775 12.185C7.64545 12.185 7.91734 12.0848 8.12855 11.8736L9.5 10.5021L10.8714 11.8736C11.0827 12.0848 11.3545 12.185 11.6225 12.185Z" fill="white" stroke="white"/>
</g>
</g>
</svg>
