<svg width="40" height="40" viewBox="0 0 40 40" fill="none" xmlns="http://www.w3.org/2000/svg">
<rect width="40" height="40" rx="20" fill="#037856"/>
<path opacity="0.4" d="M26.9925 16.8561V16.8575V23.1425C26.9925 24.4081 26.6172 25.3582 25.9839 25.9914C25.3507 26.6247 24.4006 27 23.135 27H16.8575C15.5919 27 14.642 26.6247 14.0088 25.9907C13.3755 25.3567 13 24.4047 13 23.135V16.8575C13 15.5919 13.3753 14.6418 14.0086 14.0086C14.6418 13.3753 15.5919 13 16.8575 13H23.1425C24.4082 13 25.3581 13.3753 25.9903 14.0083C26.6224 14.6412 26.996 15.5909 26.9925 16.8561Z" fill="white" stroke="white"/>
<path d="M22.8125 17.8125H17.1875C17.1744 17.8125 17.1588 17.8073 17.1445 17.793C17.1302 17.7787 17.125 17.7631 17.125 17.75C17.125 17.7369 17.1302 17.7213 17.1445 17.707C17.1588 17.6927 17.1744 17.6875 17.1875 17.6875H22.8125C22.8256 17.6875 22.8412 17.6927 22.8555 17.707C22.8698 17.7213 22.875 17.7369 22.875 17.75C22.875 17.7631 22.8698 17.7787 22.8555 17.793C22.8412 17.8073 22.8256 17.8125 22.8125 17.8125Z" fill="white" stroke="white"/>
<path d="M22.8125 22.3125H17.1875C17.1744 22.3125 17.1588 22.3073 17.1445 22.293C17.1302 22.2787 17.125 22.2631 17.125 22.25C17.125 22.2369 17.1302 22.2213 17.1445 22.207C17.1588 22.1927 17.1744 22.1875 17.1875 22.1875H22.8125C22.8256 22.1875 22.8412 22.1927 22.8555 22.207C22.8698 22.2213 22.875 22.2369 22.875 22.25C22.875 22.2631 22.8698 22.2787 22.8555 22.293C22.8412 22.3073 22.8256 22.3125 22.8125 22.3125Z" fill="white" stroke="white"/>
</svg>
