<svg width="16" height="19" viewBox="0 0 16 19" fill="#ffffff" xmlns="http://www.w3.org/2000/svg">
<path d="M12.5999 3.7951C11.9163 3.01472 11.5396 2.01253 11.5399 0.975098H8.44991V13.3751C8.42608 14.0461 8.14278 14.6817 7.65968 15.148C7.17657 15.6144 6.53136 15.875 5.85991 15.8751C4.43991 15.8751 3.25991 14.7151 3.25991 13.2751C3.25991 11.5551 4.91991 10.2651 6.62991 10.7951V7.6351C3.17991 7.1751 0.159912 9.8551 0.159912 13.2751C0.159912 16.6051 2.91991 18.9751 5.84991 18.9751C8.98991 18.9751 11.5399 16.4251 11.5399 13.2751V6.9851C12.7929 7.88495 14.2973 8.36774 15.8399 8.3651V5.2751C15.8399 5.2751 13.9599 5.3651 12.5999 3.7951Z" fill="#054E3B"/>
</svg>
