<svg width="40" height="40" viewBox="0 0 40 40" fill="none" xmlns="http://www.w3.org/2000/svg">
<rect width="40" height="40" rx="20" fill="#037856"/>
<path d="M24.1584 20.0935L24.1585 20.0935L24.1579 20.0876C24.128 19.7733 24.2471 19.4776 24.4594 19.2703L24.4595 19.2704L24.4684 19.2613C24.6511 19.0736 24.9041 18.9625 25.1902 18.9625H26.7391C26.8935 18.9714 27.0002 19.0931 27.0002 19.2275V20.7725C27.0002 20.9069 26.8935 21.0286 26.7391 21.0375H25.2802C24.6908 21.0375 24.2012 20.6068 24.1584 20.0935Z" fill="white" stroke="white"/>
<path d="M22.0369 20.2681L22.0369 20.2688C22.1808 21.9049 23.609 23.1625 25.28 23.1625H26.2135C26.1092 23.9822 25.7628 24.6376 25.2505 25.0957C24.7071 25.5816 23.9439 25.875 23 25.875H16.25C14.4561 25.875 13 24.4189 13 22.625V17.375C13 16.4569 13.2755 15.7105 13.7346 15.1718C14.1927 14.6344 14.8603 14.2721 15.7048 14.1661L15.7048 14.1663L15.7185 14.1642C15.8868 14.1383 16.0638 14.125 16.25 14.125H23C23.1847 14.125 23.3404 14.1324 23.4803 14.1557L23.4923 14.1577L23.5043 14.1591C25.0101 14.3355 26.0208 15.33 26.2135 16.8375H25.19C24.3428 16.8375 23.5462 17.164 22.9685 17.7568C22.2938 18.4168 21.9567 19.3421 22.0369 20.2681ZM16.25 18.8125H20.75C21.3336 18.8125 21.8125 18.3336 21.8125 17.75C21.8125 17.1664 21.3336 16.6875 20.75 16.6875H16.25C15.6664 16.6875 15.1875 17.1664 15.1875 17.75C15.1875 18.3336 15.6664 18.8125 16.25 18.8125Z" fill="white" stroke="white"/>
</svg>
