<svg width="40" height="40" viewBox="0 0 40 40" fill="none" xmlns="http://www.w3.org/2000/svg">
<rect width="40" height="40" rx="20" fill="#037856"/>
<path d="M16.82 13H23.18C24.1777 13 24.7095 13.1856 25.0109 13.4901C25.3137 13.7961 25.5 14.3392 25.5 15.3575V24.6425C25.5 25.6608 25.3137 26.2036 25.0103 26.5095C24.7081 26.8142 24.1743 27 23.1725 27H16.82C15.8223 27 15.2905 26.8144 14.9891 26.5099C14.6863 26.2039 14.5 25.6608 14.5 24.6425V15.3575C14.5 14.3392 14.6863 13.7961 14.9891 13.4901C15.2905 13.1856 15.8223 13 16.82 13ZM18.1875 24.1625C18.1875 25.1586 19.0039 25.975 20 25.975C20.9961 25.975 21.8125 25.1586 21.8125 24.1625C21.8125 23.1664 20.9961 22.35 20 22.35C19.0039 22.35 18.1875 23.1664 18.1875 24.1625ZM18.5 16.1875H21.5C22.0836 16.1875 22.5625 15.7086 22.5625 15.125C22.5625 14.5414 22.0836 14.0625 21.5 14.0625H18.5C17.9164 14.0625 17.4375 14.5414 17.4375 15.125C17.4375 15.7086 17.9164 16.1875 18.5 16.1875Z" fill="white" stroke="white"/>
</svg>
