<svg width="40" height="41" viewBox="0 0 40 41" fill="none" xmlns="http://www.w3.org/2000/svg">
<rect y="0.5" width="40" height="40" rx="20" fill="#037856"/>
<path d="M22.6325 13.6226H17.3675C15.5 13.6226 15.0875 14.5526 14.8475 15.6926L14 19.7501H26L25.1525 15.6926C24.9125 14.5526 24.5 13.6226 22.6325 13.6226Z" stroke="white" stroke-width="1.125" stroke-linecap="round" stroke-linejoin="round"/>
<path d="M27.4925 26.365C27.575 27.2425 26.87 28 25.97 28H24.56C23.75 28 23.6375 27.655 23.495 27.2275L23.345 26.7775C23.135 26.1625 23 25.75 21.92 25.75H18.08C17 25.75 16.8425 26.215 16.655 26.7775L16.505 27.2275C16.3625 27.655 16.25 28 15.44 28H14.03C13.13 28 12.425 27.2425 12.5075 26.365L12.9275 21.7975C13.0325 20.6725 13.25 19.75 15.215 19.75H24.785C26.75 19.75 26.9675 20.6725 27.0725 21.7975L27.4925 26.365Z" stroke="white" stroke-width="1.125" stroke-linecap="round" stroke-linejoin="round"/>
<path d="M14 17.5H13.25" stroke="white" stroke-width="1.125" stroke-linecap="round" stroke-linejoin="round"/>
<path d="M26.75 17.5H26" stroke="white" stroke-width="1.125" stroke-linecap="round" stroke-linejoin="round"/>
<path d="M20 13.75V15.25" stroke="white" stroke-width="1.125" stroke-linecap="round" stroke-linejoin="round"/>
<path d="M18.875 15.25H21.125" stroke="white" stroke-width="1.125" stroke-linecap="round" stroke-linejoin="round"/>
<path d="M15.5 22.75H17.75" stroke="white" stroke-width="1.125" stroke-linecap="round" stroke-linejoin="round"/>
<path d="M22.25 22.75H24.5" stroke="white" stroke-width="1.125" stroke-linecap="round" stroke-linejoin="round"/>
</svg>
