<svg width="22" height="17" viewBox="0 0 22 17" fill="none" xmlns="http://www.w3.org/2000/svg">
<path d="M8.8 11.9751L14.509 8.6751L8.8 5.3751V11.9751ZM21.516 3.3621C21.659 3.8791 21.758 4.5721 21.824 5.4521C21.901 6.3321 21.934 7.0911 21.934 7.7511L22 8.6751C22 11.0841 21.824 12.8551 21.516 13.9881C21.241 14.9781 20.603 15.6161 19.613 15.8911C19.096 16.0341 18.15 16.1331 16.698 16.1991C15.268 16.2761 13.959 16.3091 12.749 16.3091L11 16.3751C6.391 16.3751 3.52 16.1991 2.387 15.8911C1.397 15.6161 0.759 14.9781 0.484 13.9881C0.341 13.4711 0.242 12.7781 0.176 11.8981C0.0990001 11.0181 0.0659999 10.2591 0.0659999 9.5991L0 8.6751C0 6.2661 0.176 4.4951 0.484 3.3621C0.759 2.3721 1.397 1.7341 2.387 1.4591C2.904 1.3161 3.85 1.2171 5.302 1.1511C6.732 1.0741 8.041 1.0411 9.251 1.0411L11 0.975098C15.609 0.975098 18.48 1.1511 19.613 1.4591C20.603 1.7341 21.241 2.3721 21.516 3.3621Z" fill="#054E3B"/>
</svg>
